# xmcd
#
# Track frame offsets: 
#        150
#        17477
#        36443
#        67180
#        84621
#        108400
#        140150
#        166588
#        194510
#        218899
#
# Disc length: 3370 seconds
#
# Revision: 1
# Processed by: cddbd v1.5.2PL0 Copyright (c) Steve Scherf et al.
# Submitted via: ExactAudioCopy v1.3
#
DISCID=900d280a
DTITLE=Kyle Eastwood - In Transit
DYEAR=2017
DGENRE=Jazz
TTITLE0=Soulful Times
TTITLE1=Rush Hour
TTITLE2=Movin'
TTITLE3=Cinema Paradiso
TTITLE4=Night Flight
TTITLE5=We See
TTITLE6=Rockin' Ronnie's
TTITLE7=Jarreau
TTITLE8=Blues In Hoss's Flat
TTITLE9=Boogie Stop Shuffle
EXTD=YEAR: 2017
EXTT0=
EXTT1=
EXTT2=
EXTT3=
EXTT4=
EXTT5=
EXTT6=
EXTT7=
EXTT8=
EXTT9=
PLAYORDER=
